<svg id='logo-light' width="66" height="30" viewBox="0 0 66 30" fill="none" xmlns="http://www.w3.org/2000/svg">
<g clip-path="url(#clip0_33_190)">
<mask id="mask0_33_190" style="mask-type:luminance" maskUnits="userSpaceOnUse" x="0" y="0" width="66" height="30">
<path d="M66 0H0V30H66V0Z" fill="white"/>
</mask>
<g mask="url(#mask0_33_190)">
<path d="M16.0622 21.2021C16.3758 21.2021 16.6895 21.2217 17.0031 21.2608C17.5259 21.2347 17.8788 21.0586 18.0618 20.7326C18.2447 20.3934 18.3362 19.976 18.3362 19.4804V19.2652H15.6701V20.2239H7.71087C7.24038 20.2239 6.86137 20.0804 6.57384 19.7934C6.28632 19.5065 6.14256 19.1282 6.14256 18.6586V13.5326L5.3584 12.9847V12.2804H15.082C15.2649 12.2804 15.4087 12.3326 15.5132 12.4369C15.6178 12.5413 15.6701 12.6847 15.6701 12.8673V13.3565H18.3362V12.9847L17.3952 12.3586V11.6543H20.8455C21.0285 11.6543 21.1723 11.7065 21.2768 11.8108C21.3814 11.9152 21.4336 12.0586 21.4336 12.2413V18.5999C21.4336 19.4217 21.2637 20.1391 20.9239 20.7521C20.5972 21.3521 20.0222 21.7434 19.1988 21.926C19.8915 22.3043 20.4338 22.8 20.8259 23.413C21.2311 24.013 21.4336 24.7043 21.4336 25.4869C21.4336 26.126 21.2964 26.7065 21.022 27.2282C20.7475 27.763 20.3685 28.213 19.8849 28.5782C19.4144 28.9565 18.8459 29.2499 18.1794 29.4586C17.5259 29.6673 16.8202 29.7717 16.0622 29.7717C15.2911 29.7717 14.5788 29.6673 13.9253 29.4586C13.2719 29.2499 12.7033 28.9565 12.2198 28.5782C11.7493 28.213 11.3768 27.763 11.1024 27.2282C10.8279 26.7065 10.6907 26.126 10.6907 25.4869C10.6907 24.8478 10.8279 24.2673 11.1024 23.7456C11.3768 23.2108 11.7493 22.7608 12.2198 22.3956C12.7033 22.0173 13.2719 21.7239 13.9253 21.5152C14.5788 21.3065 15.2911 21.2021 16.0622 21.2021ZM9.16157 17.4652C9.16157 17.6608 9.25959 17.7586 9.45563 17.7586H12.6903V14.7065H9.16157V17.4652ZM18.3362 16.8391V15.7826H15.6701V16.8391H18.3362ZM13.7881 25.4869C13.7881 26.0347 13.9841 26.4782 14.3762 26.8173C14.7683 27.1695 15.3303 27.3456 16.0622 27.3456C16.794 27.3456 17.356 27.1695 17.7481 26.8173C18.1402 26.4782 18.3362 26.0347 18.3362 25.4869C18.3362 24.9391 18.1402 24.4956 17.7481 24.1565C17.356 23.8043 16.794 23.6282 16.0622 23.6282C15.3303 23.6282 14.7683 23.8043 14.3762 24.1565C13.9841 24.4956 13.7881 24.9391 13.7881 25.4869Z" fill="white"/>
<path d="M10.606 0.391357C10.7889 0.391357 10.9327 0.443531 11.0373 0.54788C11.1549 0.652227 11.2202 0.795706 11.2333 0.978315C11.2464 1.5131 11.1614 2.04136 10.9784 2.5631C11.2006 2.90223 11.5078 3.22179 11.8998 3.52179C12.305 3.82179 12.7755 4.09571 13.3113 4.34353C13.8472 4.57831 14.4353 4.78701 15.0757 4.96962C15.7161 5.15223 16.3957 5.30223 17.1145 5.41962L16.0951 7.65005C15.52 7.57179 14.9254 7.4544 14.3111 7.29788C13.6969 7.14136 13.0957 6.94571 12.5076 6.71092C11.9194 6.4631 11.3575 6.17614 10.8216 5.85005C10.2858 5.52397 9.80874 5.15875 9.39053 4.7544C8.92003 5.17179 8.39726 5.54353 7.82221 5.86962C7.24716 6.19571 6.64597 6.48266 6.01865 6.73049C5.39132 6.96527 4.75092 7.16092 4.09746 7.31744C3.45706 7.47397 2.83627 7.58484 2.23508 7.65005L1.17647 5.34136C2.07825 5.22397 2.92122 5.0544 3.70538 4.83266C4.50261 4.61092 5.20181 4.34353 5.803 4.03049C6.41726 3.71744 6.91389 3.35875 7.2929 2.9544C7.68498 2.53701 7.92676 2.07397 8.01825 1.56527L7.23409 1.09571V0.391357H10.606ZM17.9771 10.8001H10.802V12.1892H15.2325C15.4155 12.1892 15.5592 12.2414 15.6638 12.3457C15.7683 12.4501 15.8206 12.5935 15.8206 12.7761V20.2118H12.7232V14.6544H2.29389V12.1892H7.50855V10.8001H0.333496V8.33484H17.9771V10.8001Z" fill="#385BBC"/>
<path d="M25.8771 25.5392V24.3392L27.9421 23.3218V9.00003L25.6157 9.20872V8.03481L30.4775 5.4522H32.3333V23.3218L34.3983 24.3392V25.5392H25.8771ZM41.6734 25.8522C40.471 25.8522 39.4168 25.7392 38.5106 25.5131C37.6045 25.287 36.8465 25.0261 36.2366 24.7305V22.3305C36.7768 22.5392 37.378 22.7044 38.0401 22.8261C38.7023 22.9305 39.3558 22.9826 40.0005 22.9826C41.5688 22.9826 42.7887 22.7131 43.6599 22.1739C44.5313 21.6174 44.9669 20.7739 44.9669 19.6435C44.9669 18.4435 44.5661 17.6087 43.7645 17.1392C42.9803 16.6696 41.8825 16.4348 40.471 16.4348H39.1118V13.7739H40.1312C41.5427 13.7739 42.5882 13.5739 43.2678 13.1739C43.9474 12.7566 44.2873 12.0435 44.2873 11.0348C44.2873 10.0261 43.9649 9.26957 43.3201 8.76525C42.6928 8.26092 41.6473 8.00872 40.1835 8.00872C39.6259 8.00872 39.0683 8.05222 38.5106 8.13916C37.9705 8.22609 37.4738 8.32177 37.0207 8.42612V6.02612C37.6829 5.78264 38.5019 5.57394 39.4777 5.40003C40.4536 5.22611 41.4381 5.13916 42.4314 5.13916C43.3898 5.13916 44.2524 5.24351 45.0191 5.4522C45.8033 5.6609 46.4742 5.97394 47.0318 6.39133C47.5895 6.79131 48.0164 7.28696 48.3126 7.87829C48.6263 8.46962 48.7831 9.15655 48.7831 9.93916C48.7831 11.1739 48.452 12.2174 47.7898 13.0696C47.1277 13.9044 46.2476 14.487 45.1498 14.8174V14.8696C46.4568 15.0609 47.5197 15.5826 48.3387 16.4348C49.1578 17.287 49.5673 18.4174 49.5673 19.8261C49.5673 20.7478 49.3843 21.5826 49.0183 22.3305C48.6524 23.0609 48.1209 23.687 47.4239 24.2087C46.7443 24.7305 45.9166 25.1304 44.9407 25.4087C43.9649 25.7044 42.8758 25.8522 41.6734 25.8522ZM53.7131 25.5392C53.8351 24.113 54.1052 22.6609 54.5234 21.1826C54.9591 19.7044 55.4905 18.2522 56.1179 16.8261C56.7452 15.3827 57.4509 13.9826 58.2351 12.6261C59.0367 11.2696 59.8818 9.99133 60.7705 8.79133H53.3472L52.1971 11.5044H50.7333L51.0208 5.4522H65.3712V7.51307C64.2557 8.95653 63.306 10.4087 62.5218 11.8696C61.7376 13.3305 61.0842 14.8087 60.5614 16.3044C60.0561 17.8 59.6553 19.3218 59.359 20.8696C59.0802 22.4001 58.8799 23.9565 58.7579 25.5392H53.7131Z" fill="#C5CDEB"/>
</g>
</g>
<defs>
<clipPath id="clip0_33_190">
<rect width="66" height="30" fill="white"/>
</clipPath>
</defs>
</svg>
