<svg id='logo' width="66" height="30" viewBox="0 0 81 37" fill="none" xmlns="http://www.w3.org/2000/svg">
<g clip-path="url(#clip0_24_147)">
<path d="M19.7127 26.1493C20.0976 26.1493 20.4826 26.1735 20.8675 26.2217C21.5091 26.1896 21.9422 25.9724 22.1667 25.5702C22.3913 25.1519 22.5036 24.6372 22.5036 24.0259V23.7604H19.2315V24.9428H9.46337C8.88594 24.9428 8.42079 24.7659 8.06792 24.4119C7.71505 24.058 7.53861 23.5915 7.53861 23.0124V16.6902L6.57624 16.0146V15.1459H18.5097C18.7343 15.1459 18.9107 15.2102 19.039 15.3389C19.1673 15.4676 19.2315 15.6446 19.2315 15.8698V16.473H22.5036V16.0146L21.3487 15.2424V14.3737H25.5832C25.8077 14.3737 25.9842 14.438 26.1125 14.5667C26.2408 14.6954 26.3049 14.8724 26.3049 15.0976V22.94C26.3049 23.9535 26.0964 24.8383 25.6794 25.5943C25.2784 26.3343 24.5727 26.8169 23.5622 27.0422C24.4123 27.5087 25.0779 28.12 25.5591 28.8761C26.0563 29.6161 26.3049 30.4687 26.3049 31.4339C26.3049 32.2222 26.1365 32.938 25.7997 33.5815C25.4629 34.2411 24.9977 34.7961 24.4043 35.2465C23.8268 35.713 23.1291 36.075 22.3111 36.3324C21.5091 36.5898 20.643 36.7185 19.7127 36.7185C18.7663 36.7185 17.8922 36.5898 17.0902 36.3324C16.2882 36.075 15.5905 35.713 14.997 35.2465C14.4196 34.7961 13.9625 34.2411 13.6256 33.5815C13.2888 32.938 13.1204 32.2222 13.1204 31.4339C13.1204 30.6456 13.2888 29.9298 13.6256 29.2863C13.9625 28.6267 14.4196 28.0717 14.997 27.6213C15.5905 27.1548 16.2882 26.7928 17.0902 26.5354C17.8922 26.278 18.7663 26.1493 19.7127 26.1493ZM11.2438 21.5404C11.2438 21.7817 11.3641 21.9024 11.6047 21.9024H15.5745V18.138H11.2438V21.5404ZM22.5036 20.7683V19.4652H19.2315V20.7683H22.5036ZM16.9218 31.4339C16.9218 32.1096 17.1624 32.6565 17.6436 33.0748C18.1248 33.5091 18.8145 33.7263 19.7127 33.7263C20.6109 33.7263 21.3006 33.5091 21.7818 33.0748C22.263 32.6565 22.5036 32.1096 22.5036 31.4339C22.5036 30.7583 22.263 30.2113 21.7818 29.793C21.3006 29.3587 20.6109 29.1415 19.7127 29.1415C18.8145 29.1415 18.1248 29.3587 17.6436 29.793C17.1624 30.2113 16.9218 30.7583 16.9218 31.4339Z" fill="#212529"/>
<path d="M13.0162 0.482605C13.2407 0.482605 13.4172 0.546953 13.5455 0.675649C13.6898 0.804344 13.77 0.981301 13.7861 1.20652C13.8021 1.86608 13.6979 2.51761 13.4733 3.16108C13.746 3.57934 14.1229 3.97347 14.6041 4.34348C15.1013 4.71347 15.6787 5.0513 16.3364 5.35695C16.994 5.64652 17.7158 5.90391 18.5017 6.12913C19.2877 6.35434 20.1217 6.53934 21.0039 6.68413L19.7528 9.435C19.0471 9.33847 18.3173 9.19369 17.5634 9.00065C16.8095 8.8076 16.0717 8.5663 15.3499 8.27673C14.6282 7.97108 13.9385 7.61717 13.2808 7.215C12.6232 6.81282 12.0378 6.36239 11.5245 5.86369C10.9471 6.37847 10.3055 6.83695 9.59974 7.23913C8.89399 7.6413 8.15617 7.99521 7.38627 8.30087C6.61637 8.59043 5.83043 8.83174 5.02845 9.02478C4.24251 9.21782 3.48063 9.35456 2.7428 9.435L1.4436 6.5876C2.55033 6.44282 3.58488 6.23369 4.54726 5.96021C5.52568 5.68674 6.3838 5.35695 7.12162 4.97087C7.87548 4.58478 8.48498 4.14239 8.95013 3.64369C9.43132 3.12891 9.72805 2.55782 9.84033 1.93043L8.87795 1.3513V0.482605H13.0162ZM22.0625 13.32H13.2568V15.0333H18.6942C18.9187 15.0333 19.0952 15.0976 19.2235 15.2263C19.3518 15.355 19.416 15.532 19.416 15.7572V24.9278H15.6146V18.0737H2.81498V15.0333H9.21479V13.32H0.409042V10.2796H22.0625V13.32Z" fill="#385BBC"/>
<path d="M31.7584 31.4983V30.0183L34.2927 28.7635V11.1L31.4376 11.3574V9.90956L37.4044 6.72434H39.682V28.7635L42.2162 30.0183V31.4983H31.7584ZM51.1448 31.8843C49.6691 31.8843 48.3753 31.7449 47.2632 31.4661C46.1512 31.1872 45.2209 30.8655 44.4723 30.5009V27.5409C45.1353 27.7983 45.8731 28.002 46.6858 28.1522C47.4985 28.2809 48.3005 28.3452 49.0917 28.3452C51.0165 28.3452 52.5135 28.0128 53.5828 27.3478C54.6522 26.6615 55.1868 25.6211 55.1868 24.227C55.1868 22.747 54.6949 21.7174 53.7111 21.1383C52.7487 20.5591 51.4014 20.2696 49.6691 20.2696H48.001V16.9878H49.2521C50.9844 16.9878 52.2675 16.7411 53.1016 16.2478C53.9357 15.733 54.3527 14.8536 54.3527 13.6096C54.3527 12.3655 53.9571 11.4324 53.1658 10.8104C52.3959 10.1884 51.1127 9.87739 49.3163 9.87739C48.6319 9.87739 47.9476 9.93104 47.2632 10.0383C46.6003 10.1455 45.9908 10.2635 45.4347 10.3922V7.43217C46.2474 7.13188 47.2525 6.87449 48.4501 6.66C49.6478 6.4455 50.8561 6.33826 52.0751 6.33826C53.2513 6.33826 54.3099 6.46695 55.2509 6.72434C56.2133 6.98173 57.0367 7.36782 57.721 7.8826C58.4054 8.37591 58.9293 8.98722 59.2929 9.71652C59.6778 10.4458 59.8703 11.293 59.8703 12.2583C59.8703 13.7811 59.464 15.0681 58.6513 16.1191C57.8387 17.1487 56.7586 17.8672 55.4113 18.2748V18.3391C57.0153 18.575 58.3198 19.2185 59.325 20.2696C60.3302 21.3206 60.8327 22.7148 60.8327 24.4522C60.8327 25.589 60.6081 26.6185 60.159 27.5409C59.7099 28.4417 59.0577 29.2139 58.2022 29.8574C57.3681 30.5009 56.3523 30.9942 55.1547 31.3374C53.9571 31.702 52.6204 31.8843 51.1448 31.8843ZM65.9208 31.4983C66.0705 29.7394 66.402 27.9484 66.9152 26.1252C67.4499 24.302 68.1022 22.511 68.8721 20.7522C69.642 18.9719 70.5081 17.2452 71.4705 15.5722C72.4543 13.8991 73.4915 12.3226 74.5822 10.8426H65.4717L64.0602 14.1887H62.2637L62.6166 6.72434H80.2285V9.26608C78.8594 11.0463 77.6938 12.8374 76.7315 14.6391C75.7691 16.4409 74.9671 18.2641 74.3255 20.1087C73.7053 21.9533 73.2134 23.8302 72.8499 25.7391C72.5077 27.6267 72.2618 29.5463 72.1121 31.4983H65.9208Z" fill="#0D2D84"/>
</g>
<defs>
<clipPath id="clip0_24_147">
<rect width="81" height="37" fill="white"/>
</clipPath>
</defs>
</svg>
